Hebrik-Italic.ufo
<glyph name="shevahebrew" format="1">
  <advance width="0"/>
  <unicode hex="05B0"/>
  <outline>
    <contour>
      <point x="-15" y="-149" type="line" smooth="yes"/>
      <point x="-2" y="-149"/>
      <point x="9" y="-140"/>
      <point x="12" y="-127" type="curve" smooth="yes"/>
      <point x="18" y="-98" type="line" smooth="yes"/>
      <point x="20" y="-85"/>
      <point x="13" y="-76"/>
      <point x="0" y="-76" type="curve" smooth="yes"/>
      <point x="-31" y="-76" type="line" smooth="yes"/>
      <point x="-44" y="-76"/>
      <point x="-55" y="-85"/>
      <point x="-57" y="-98" type="curve" smooth="yes"/>
      <point x="-64" y="-127" type="line" smooth="yes"/>
      <point x="-67" y="-140"/>
      <point x="-60" y="-149"/>
      <point x="-47" y="-149" type="curve" smooth="yes"/>
    </contour>
    <contour>
      <point x="-37" y="-253" type="line" smooth="yes"/>
      <point x="-24" y="-253"/>
      <point x="-13" y="-244"/>
      <point x="-10" y="-231" type="curve" smooth="yes"/>
      <point x="-5" y="-201" type="line" smooth="yes"/>
      <point x="-2" y="-188"/>
      <point x="-9" y="-179"/>
      <point x="-22" y="-179" type="curve" smooth="yes"/>
      <point x="-53" y="-179" type="line" smooth="yes"/>
      <point x="-66" y="-179"/>
      <point x="-77" y="-188"/>
      <point x="-80" y="-201" type="curve" smooth="yes"/>
      <point x="-86" y="-231" type="line" smooth="yes"/>
      <point x="-89" y="-244"/>
      <point x="-82" y="-253"/>
      <point x="-69" y="-253" type="curve" smooth="yes"/>
    </contour>
    <contour>
      <point x="1" y="0" type="move" name="_bottom"/>
    </contour>
  </outline>
</glyph>
<glyph name="segolhebrew" format="1">
  <advance width="0"/>
  <unicode hex="05B6"/>
  <outline>
    <contour>
      <point x="50" y="-149" type="line" smooth="yes"/>
      <point x="63" y="-149"/>
      <point x="74" y="-140"/>
      <point x="77" y="-127" type="curve" smooth="yes"/>
      <point x="83" y="-98" type="line" smooth="yes"/>
      <point x="86" y="-85"/>
      <point x="78" y="-76"/>
      <point x="65" y="-76" type="curve" smooth="yes"/>
      <point x="34" y="-76" type="line" smooth="yes"/>
      <point x="21" y="-76"/>
      <point x="10" y="-85"/>
      <point x="8" y="-98" type="curve" smooth="yes"/>
      <point x="2" y="-127" type="line" smooth="yes"/>
      <point x="-1" y="-140"/>
      <point x="6" y="-149"/>
      <point x="19" y="-149" type="curve" smooth="yes"/>
    </contour>
    <contour>
      <point x="-37" y="-253" type="line" smooth="yes"/>
      <point x="-24" y="-253"/>
      <point x="-13" y="-244"/>
      <point x="-10" y="-231" type="curve" smooth="yes"/>
      <point x="-5" y="-201" type="line" smooth="yes"/>
      <point x="-2" y="-188"/>
      <point x="-9" y="-179"/>
      <point x="-22" y="-179" type="curve" smooth="yes"/>
      <point x="-53" y="-179" type="line" smooth="yes"/>
      <point x="-66" y="-179"/>
      <point x="-77" y="-188"/>
      <point x="-80" y="-201" type="curve" smooth="yes"/>
      <point x="-85" y="-231" type="line" smooth="yes"/>
      <point x="-88" y="-244"/>
      <point x="-81" y="-253"/>
      <point x="-68" y="-253" type="curve" smooth="yes"/>
    </contour>
    <contour>
      <point x="-78" y="-149" type="line" smooth="yes"/>
      <point x="-65" y="-149"/>
      <point x="-54" y="-140"/>
      <point x="-51" y="-127" type="curve" smooth="yes"/>
      <point x="-45" y="-98" type="line" smooth="yes"/>
      <point x="-43" y="-85"/>
      <point x="-50" y="-76"/>
      <point x="-63" y="-76" type="curve" smooth="yes"/>
      <point x="-94" y="-76" type="line" smooth="yes"/>
      <point x="-107" y="-76"/>
      <point x="-118" y="-85"/>
      <point x="-120" y="-98" type="curve" smooth="yes"/>
      <point x="-127" y="-127" type="line" smooth="yes"/>
      <point x="-130" y="-140"/>
      <point x="-123" y="-149"/>
      <point x="-110" y="-149" type="curve" smooth="yes"/>
    </contour>
    <contour>
      <point x="1" y="0" type="move" name="_bottom"/>
    </contour>
  </outline>
</glyph>
<glyph name="holamhebrew" format="1">
  <advance width="0"/>
  <unicode hex="05B9"/>
  <outline>
    <contour>
      <point x="129" y="533" type="line" smooth="yes"/>
      <point x="142" y="533"/>
      <point x="153" y="542"/>
      <point x="156" y="555" type="curve" smooth="yes"/>
      <point x="163" y="585" type="line" smooth="yes"/>
      <point x="166" y="598"/>
      <point x="159" y="607"/>
      <point x="146" y="607" type="curve" smooth="yes"/>
      <point x="114" y="607" type="line" smooth="yes"/>
      <point x="101" y="607"/>
      <point x="90" y="598"/>
      <point x="87" y="585" type="curve" smooth="yes"/>
      <point x="81" y="555" type="line" smooth="yes"/>
      <point x="78" y="542"/>
      <point x="85" y="533"/>
      <point x="98" y="533" type="curve" smooth="yes"/>
    </contour>
    <contour>
      <point x="140" y="415" type="move" name="_topleft"/>
    </contour>
  </outline>
</glyph>
<glyph name="alefhebrew" format="1">
  <advance width="586"/>
  <unicode hex="05D0"/>
  <outline>
    <contour>
      <point x="462" y="0" type="line" smooth="yes"/>
      <point x="473" y="0"/>
      <point x="484" y="9"/>
      <point x="487" y="20" type="curve" smooth="yes"/>
      <point x="487" y="25"/>
      <point x="488" y="31"/>
      <point x="484" y="39" type="curve" smooth="yes"/>
      <point x="225" y="554" type="line" smooth="yes"/>
      <point x="222" y="561"/>
      <point x="215" y="571"/>
      <point x="200" y="571" type="curve" smooth="yes"/>
      <point x="156" y="571" type="line" smooth="yes"/>
      <point x="145" y="571"/>
      <point x="134" y="562"/>
      <point x="132" y="551" type="curve" smooth="yes"/>
      <point x="131" y="546"/>
      <point x="132" y="540"/>
      <point x="135" y="532" type="curve" smooth="yes"/>
      <point x="393" y="16" type="line" smooth="yes"/>
      <point x="397" y="10"/>
      <point x="402" y="0"/>
      <point x="417" y="0" type="curve" smooth="yes"/>
    </contour>
    <contour>
      <point x="64" y="0" type="line" smooth="yes"/>
      <point x="77" y="0"/>
      <point x="89" y="10"/>
      <point x="92" y="23" type="curve" smooth="yes"/>
      <point x="123" y="170" type="line" smooth="yes"/>
      <point x="135" y="229"/>
      <point x="162" y="297"/>
      <point x="247" y="344" type="curve"/>
      <point x="214" y="412" type="line"/>
      <point x="94" y="347"/>
      <point x="60" y="264"/>
      <point x="40" y="174" type="curve" smooth="yes"/>
      <point x="9" y="23" type="line" smooth="yes"/>
      <point x="6" y="10"/>
      <point x="13" y="0"/>
      <point x="27" y="0" type="curve" smooth="yes"/>
    </contour>
    <contour>
      <point x="515" y="246"/>
      <point x="547" y="319"/>
      <point x="565" y="405" type="curve" smooth="yes"/>
      <point x="595" y="548" type="line" smooth="yes"/>
      <point x="598" y="561"/>
      <point x="590" y="571"/>
      <point x="577" y="571" type="curve" smooth="yes"/>
      <point x="538" y="571" type="line" smooth="yes"/>
      <point x="525" y="571"/>
      <point x="513" y="562"/>
      <point x="511" y="548" type="curve" smooth="yes"/>
      <point x="481" y="409" type="line" smooth="yes"/>
      <point x="468" y="348"/>
      <point x="456" y="297"/>
      <point x="346" y="251" type="curve"/>
      <point x="373" y="181" type="line"/>
    </contour>
    <contour>
      <point x="216" y="122" type="move" name="center"/>
    </contour>
    <contour>
      <point x="353" y="520" type="move" name="top"/>
    </contour>
    <contour>
      <point x="-25" y="0" type="move" name="bottomleft"/>
    </contour>
    <contour>
      <point x="86" y="520" type="move" name="topleft"/>
    </contour>
    <contour>
      <point x="242" y="0" type="move" name="bottom"/>
    </contour>
  </outline>
</glyph>
<glyph name="bethebrew" format="1">
  <advance width="543"/>
  <unicode hex="05D1"/>
  <outline>
    <contour>
      <point x="442" y="0" type="line" smooth="yes"/>
      <point x="455" y="0"/>
      <point x="467" y="10"/>
      <point x="470" y="23" type="curve" smooth="yes"/>
      <point x="477" y="55" type="line" smooth="yes"/>
      <point x="479" y="68"/>
      <point x="471" y="78"/>
      <point x="458" y="78" type="curve" smooth="yes"/>
      <point x="421" y="78" type="line"/>
      <point x="474" y="326" type="line" smooth="yes"/>
      <point x="508" y="486"/>
      <point x="442" y="571"/>
      <point x="270" y="571" type="curve" smooth="yes"/>
      <point x="158" y="571" type="line" smooth="yes"/>
      <point x="144" y="571"/>
      <point x="133" y="562"/>
      <point x="131" y="548" type="curve" smooth="yes"/>
      <point x="124" y="516" type="line" smooth="yes"/>
      <point x="121" y="503"/>
      <point x="128" y="493"/>
      <point x="142" y="493" type="curve" smooth="yes"/>
      <point x="248" y="493" type="line" smooth="yes"/>
      <point x="369" y="493"/>
      <point x="407" y="430"/>
      <point x="383" y="322" type="curve" smooth="yes"/>
      <point x="331" y="78" type="line"/>
      <point x="43" y="78" type="line" smooth="yes"/>
      <point x="30" y="78"/>
      <point x="18" y="68"/>
      <point x="16" y="55" type="curve" smooth="yes"/>
      <point x="9" y="23" type="line" smooth="yes"/>
      <point x="6" y="10"/>
      <point x="13" y="0"/>
      <point x="27" y="0" type="curve" smooth="yes"/>
    </contour>
    <contour>
      <point x="222" y="0" type="move" name="bottom"/>
    </contour>
    <contour>
      <point x="333" y="520" type="move" name="top"/>
    </contour>
    <contour>
      <point x="-30" y="0" type="move" name="bottomleft"/>
    </contour>
    <contour>
      <point x="81" y="520" type="move" name="topleft"/>
    </contour>
    <contour>
      <point x="212" y="260" type="move" name="center"/>
    </contour>
  </outline>
</glyph>
<glyph name="gimelhebrew" format="1">
  <advance width="444"/>
  <unicode hex="05D2"/>
  <outline>
    <contour>
      <point x="334" y="0" type="line" smooth="yes"/>
      <point x="348" y="0"/>
      <point x="362" y="10"/>
      <point x="362" y="23" type="curve" smooth="yes"/>
      <point x="368" y="335" type="line" smooth="yes"/>
      <point x="369" y="493"/>
      <point x="337" y="573"/>
      <point x="207" y="573" type="curve" smooth="yes"/>
      <point x="169" y="573" type="line" smooth="yes"/>
      <point x="156" y="573"/>
      <point x="144" y="563"/>
      <point x="142" y="550" type="curve" smooth="yes"/>
      <point x="135" y="516" type="line" smooth="yes"/>
      <point x="132" y="503"/>
      <point x="139" y="494"/>
      <point x="153" y="494" type="curve" smooth="yes"/>
      <point x="189" y="494" type="line" smooth="yes"/>
      <point x="267" y="494"/>
      <point x="277" y="437"/>
      <point x="277" y="330" type="curve" smooth="yes"/>
      <point x="273" y="23" type="line"/>
      <point x="272" y="10"/>
      <point x="277" y="0"/>
      <point x="290" y="0" type="curve" smooth="yes"/>
    </contour>
    <contour>
      <point x="234" y="87"/>
      <point x="339" y="184"/>
      <point x="348" y="276" type="curve"/>
      <point x="288" y="268" type="line"/>
      <point x="280" y="227"/>
      <point x="208" y="155"/>
      <point x="152" y="124" type="curve" smooth="yes"/>
      <point x="114" y="103"/>
      <point x="52" y="84"/>
      <point x="37" y="79" type="curve" smooth="yes"/>
      <point x="20" y="73"/>
      <point x="12" y="64"/>
      <point x="10" y="54" type="curve" smooth="yes"/>
      <point x="0" y="7" type="line" smooth="yes"/>
      <point x="-2" y="-7"/>
      <point x="8" y="-10"/>
      <point x="21" y="-8" type="curve" smooth="yes"/>
      <point x="70" y="1"/>
      <point x="114" y="17"/>
      <point x="171" y="51" type="curve" smooth="yes"/>
    </contour>
    <contour>
      <point x="212" y="0" type="move" name="bottom"/>
    </contour>
    <contour>
      <point x="323" y="520" type="move" name="top"/>
    </contour>
    <contour>
      <point x="-26" y="0" type="move" name="bottomleft"/>
    </contour>
    <contour>
      <point x="85" y="520" type="move" name="topleft"/>
    </contour>
    <contour>
      <point x="157" y="260" type="move" name="center"/>
    </contour>
  </outline>
</glyph>
<glyph name="dalethebrew" format="1">
  <advance width="557"/>
  <unicode hex="05D3"/>
  <outline>
    <contour>
      <point x="324" y="0" type="line" smooth="yes"/>
      <point x="337" y="0"/>
      <point x="350" y="9"/>
      <point x="353" y="22" type="curve"/>
      <point x="427" y="375" type="line" smooth="yes"/>
      <point x="443" y="449"/>
      <point x="477" y="506"/>
      <point x="511" y="506" type="curve"/>
      <point x="416" y="506" type="line"/>
      <point x="388" y="506"/>
      <point x="358" y="460"/>
      <point x="341" y="381" type="curve" smooth="yes"/>
      <point x="265" y="22" type="line" smooth="yes"/>
      <point x="262" y="9"/>
      <point x="269" y="0"/>
      <point x="282" y="0" type="curve" smooth="yes"/>
    </contour>
    <contour>
      <point x="543" y="494" type="line" smooth="yes"/>
      <point x="557" y="494"/>
      <point x="568" y="503"/>
      <point x="571" y="516" type="curve" smooth="yes"/>
      <point x="578" y="548" type="line" smooth="yes"/>
      <point x="580" y="562"/>
      <point x="572" y="571"/>
      <point x="559" y="571" type="curve" smooth="yes"/>
      <point x="131" y="571" type="line" smooth="yes"/>
      <point x="118" y="571"/>
      <point x="106" y="562"/>
      <point x="104" y="548" type="curve" smooth="yes"/>
      <point x="97" y="516" type="line" smooth="yes"/>
      <point x="94" y="503"/>
      <point x="101" y="494"/>
      <point x="115" y="494" type="curve" smooth="yes"/>
    </contour>
    <contour>
      <point x="302" y="0" type="move" name="bottom"/>
    </contour>
    <contour>
      <point x="339" y="520" type="move" name="top"/>
    </contour>
    <contour>
      <point x="-6" y="0" type="move" name="bottomleft"/>
    </contour>
    <contour>
      <point x="105" y="520" type="move" name="topleft"/>
    </contour>
    <contour>
      <point x="191" y="260" type="move" name="center"/>
    </contour>
  </outline>
</glyph>
<glyph name="hehebrew" format="1">
  <advance width="618"/>
  <unicode hex="05D4"/>
  <outline>
    <contour>
      <point x="474" y="0" type="line" smooth="yes"/>
      <point x="487" y="0"/>
      <point x="499" y="10"/>
      <point x="502" y="23" type="curve" smooth="yes"/>
      <point x="566" y="325" type="line" smooth="yes"/>
      <point x="599" y="485"/>
      <point x="535" y="571"/>
      <point x="363" y="571" type="curve" smooth="yes"/>
      <point x="172" y="571" type="line" smooth="yes"/>
      <point x="159" y="571"/>
      <point x="147" y="562"/>
      <point x="145" y="548" type="curve" smooth="yes"/>
      <point x="138" y="516" type="line" smooth="yes"/>
      <point x="135" y="503"/>
      <point x="142" y="494"/>
      <point x="156" y="494" type="curve" smooth="yes"/>
      <point x="342" y="494" type="line" smooth="yes"/>
      <point x="462" y="494"/>
      <point x="500" y="430"/>
      <point x="476" y="322" type="curve" smooth="yes"/>
      <point x="414" y="23" type="line" smooth="yes"/>
      <point x="410" y="9"/>
      <point x="418" y="0"/>
      <point x="431" y="0" type="curve" smooth="yes"/>
    </contour>
    <contour>
      <point x="93" y="0" type="line" smooth="yes"/>
      <point x="106" y="0"/>
      <point x="118" y="10"/>
      <point x="121" y="23" type="curve"/>
      <point x="192" y="359" type="line" smooth="yes"/>
      <point x="195" y="372"/>
      <point x="188" y="382"/>
      <point x="174" y="382" type="curve" smooth="yes"/>
      <point x="132" y="382" type="line" smooth="yes"/>
      <point x="119" y="382"/>
      <point x="107" y="372"/>
      <point x="104" y="359" type="curve" smooth="yes"/>
      <point x="33" y="23" type="line" smooth="yes"/>
      <point x="30" y="10"/>
      <point x="37" y="0"/>
      <point x="51" y="0" type="curve" smooth="yes"/>
    </contour>
    <contour>
      <point x="314" y="260" type="move" name="center"/>
    </contour>
    <contour>
      <point x="370" y="520" type="move" name="top"/>
    </contour>
    <contour>
      <point x="-30" y="0" type="move" name="bottomleft"/>
    </contour>
    <contour>
      <point x="81" y="520" type="move" name="topleft"/>
    </contour>
    <contour>
      <point x="259" y="0" type="move" name="bottom"/>
    </contour>
  </outline>
</glyph>
<glyph name="vavhebrew" format="1">
  <advance width="245"/>
  <unicode hex="05D5"/>
  <outline>
    <contour>
      <point x="95" y="0" type="line" smooth="yes"/>
      <point x="108" y="0"/>
      <point x="120" y="10"/>
      <point x="123" y="23" type="curve"/>
      <point x="234" y="548" type="line" smooth="yes"/>
      <point x="237" y="562"/>
      <point x="229" y="571"/>
      <point x="216" y="571" type="curve" smooth="yes"/>
      <point x="172" y="571" type="line" smooth="yes"/>
      <point x="158" y="571"/>
      <point x="147" y="562"/>
      <point x="145" y="548" type="curve" smooth="yes"/>
      <point x="33" y="23" type="line" smooth="yes"/>
      <point x="30" y="10"/>
      <point x="37" y="0"/>
      <point x="51" y="0" type="curve" smooth="yes"/>
    </contour>
    <contour>
      <point x="73" y="0" type="move" name="bottom"/>
    </contour>
    <contour>
      <point x="184" y="520" type="move" name="top"/>
    </contour>
    <contour>
      <point x="-30" y="0" type="move" name="bottomleft"/>
    </contour>
    <contour>
      <point x="207" y="520" type="move" name="topleft"/>
    </contour>
    <contour>
      <point x="10" y="260" type="move" name="center"/>
    </contour>
  </outline>
</glyph>
<glyph name="zayinhebrew" format="1">
  <advance width="394"/>
  <unicode hex="05D6"/>
  <outline>
    <contour>
      <point x="153" y="0" type="line" smooth="yes"/>
      <point x="166" y="0"/>
      <point x="179" y="9"/>
      <point x="182" y="22" type="curve"/>
      <point x="256" y="375" type="line" smooth="yes"/>
      <point x="272" y="449"/>
      <point x="306" y="506"/>
      <point x="340" y="506" type="curve"/>
      <point x="245" y="506" type="line"/>
      <point x="217" y="506"/>
      <point x="186" y="460"/>
      <point x="170" y="381" type="curve" smooth="yes"/>
      <point x="94" y="22" type="line" smooth="yes"/>
      <point x="91" y="9"/>
      <point x="98" y="0"/>
      <point x="111" y="0" type="curve" smooth="yes"/>
    </contour>
    <contour>
      <point x="372" y="494" type="line" smooth="yes"/>
      <point x="385" y="494"/>
      <point x="397" y="503"/>
      <point x="400" y="516" type="curve" smooth="yes"/>
      <point x="406" y="548" type="line" smooth="yes"/>
      <point x="409" y="562"/>
      <point x="401" y="571"/>
      <point x="388" y="571" type="curve" smooth="yes"/>
      <point x="148" y="571" type="line" smooth="yes"/>
      <point x="135" y="571"/>
      <point x="123" y="562"/>
      <point x="121" y="548" type="curve" smooth="yes"/>
      <point x="114" y="516" type="line" smooth="yes"/>
      <point x="111" y="503"/>
      <point x="118" y="494"/>
      <point x="132" y="494" type="curve" smooth="yes"/>
    </contour>
    <contour>
      <point x="71" y="260" type="move" name="center"/>
    </contour>
    <contour>
      <point x="267" y="520" type="move" name="top"/>
    </contour>
    <contour>
      <point x="11" y="0" type="move" name="bottomleft"/>
    </contour>
    <contour>
      <point x="122" y="520" type="move" name="topleft"/>
    </contour>
    <contour>
      <point x="141" y="0" type="move" name="bottom"/>
    </contour>
  </outline>
</glyph>
<glyph name="hethebrew" format="1">
  <advance width="620"/>
  <unicode hex="05D7"/>
  <outline>
    <contour>
      <point x="93" y="0" type="line" smooth="yes"/>
      <point x="106" y="0"/>
      <point x="118" y="10"/>
      <point x="121" y="23" type="curve" smooth="yes"/>
      <point x="221" y="494" type="line"/>
      <point x="343" y="494" type="line" smooth="yes"/>
      <point x="464" y="494"/>
      <point x="501" y="430"/>
      <point x="478" y="322" type="curve" smooth="yes"/>
      <point x="415" y="23" type="line" smooth="yes"/>
      <point x="412" y="9"/>
      <point x="419" y="0"/>
      <point x="433" y="0" type="curve" smooth="yes"/>
      <point x="475" y="0" type="line" smooth="yes"/>
      <point x="488" y="0"/>
      <point x="500" y="10"/>
      <point x="503" y="23" type="curve" smooth="yes"/>
      <point x="567" y="325" type="line" smooth="yes"/>
      <point x="601" y="487"/>
      <point x="538" y="571"/>
      <point x="364" y="571" type="curve" smooth="yes"/>
      <point x="172" y="571" type="line" smooth="yes"/>
      <point x="158" y="571"/>
      <point x="147" y="562"/>
      <point x="145" y="548" type="curve" smooth="yes"/>
      <point x="33" y="23" type="line" smooth="yes"/>
      <point x="30" y="10"/>
      <point x="37" y="0"/>
      <point x="51" y="0" type="curve" smooth="yes"/>
    </contour>
    <contour>
      <point x="315" y="260" type="move" name="center"/>
    </contour>
    <contour>
      <point x="371" y="520" type="move" name="top"/>
    </contour>
    <contour>
      <point x="-30" y="0" type="move" name="bottomleft"/>
    </contour>
    <contour>
      <point x="81" y="520" type="move" name="topleft"/>
    </contour>
    <contour>
      <point x="260" y="0" type="move" name="bottom"/>
    </contour>
  </outline>
</glyph>
<glyph name="tethebrew" format="1">
  <advance width="631"/>
  <unicode hex="05D8"/>
  <outline>
    <contour>
      <point x="451" y="-10"/>
      <point x="536" y="73"/>
      <point x="573" y="227" type="curve" smooth="yes"/>
      <point x="578" y="247"/>
      <point x="595" y="325"/>
      <point x="599" y="345" type="curve" smooth="yes"/>
      <point x="629" y="504"/>
      <point x="574" y="576"/>
      <point x="446" y="576" type="curve" smooth="yes"/>
      <point x="396" y="576"/>
      <point x="366" y="566"/>
      <point x="336" y="549" type="curve" smooth="yes"/>
      <point x="323" y="541"/>
      <point x="321" y="531"/>
      <point x="318" y="518" type="curve" smooth="yes"/>
      <point x="311" y="489" type="line" smooth="yes"/>
      <point x="309" y="475"/>
      <point x="323" y="467"/>
      <point x="336" y="474" type="curve" smooth="yes"/>
      <point x="360" y="488"/>
      <point x="396" y="497"/>
      <point x="418" y="497" type="curve" smooth="yes"/>
      <point x="492" y="497"/>
      <point x="531" y="448"/>
      <point x="510" y="335" type="curve" smooth="yes"/>
      <point x="505" y="315"/>
      <point x="493" y="252"/>
      <point x="488" y="232" type="curve" smooth="yes"/>
      <point x="462" y="124"/>
      <point x="401" y="69"/>
      <point x="288" y="69" type="curve" smooth="yes"/>
      <point x="176" y="69"/>
      <point x="135" y="131"/>
      <point x="159" y="240" type="curve" smooth="yes"/>
      <point x="224" y="548" type="line" smooth="yes"/>
      <point x="226" y="562"/>
      <point x="219" y="571"/>
      <point x="206" y="571" type="curve" smooth="yes"/>
      <point x="167" y="571" type="line" smooth="yes"/>
      <point x="153" y="571"/>
      <point x="142" y="562"/>
      <point x="140" y="548" type="curve" smooth="yes"/>
      <point x="73" y="235" type="line" smooth="yes"/>
      <point x="40" y="80"/>
      <point x="93" y="-10"/>
      <point x="272" y="-10" type="curve" smooth="yes"/>
    </contour>
    <contour>
      <point x="328" y="260" type="move" name="center"/>
    </contour>
    <contour>
      <point x="385" y="520" type="move" name="top"/>
    </contour>
    <contour>
      <point x="-30" y="0" type="move" name="bottomleft"/>
    </contour>
    <contour>
      <point x="81" y="520" type="move" name="topleft"/>
    </contour>
    <contour>
      <point x="274" y="0" type="move" name="bottom"/>
    </contour>
  </outline>
</glyph>
<glyph name="finalkafhebrew" format="1">
  <advance width="565"/>
  <unicode hex="05DA"/>
  <outline>
    <contour>
      <point x="334" y="-101" type="line" smooth="yes"/>
      <point x="331" y="-115"/>
      <point x="339" y="-124"/>
      <point x="352" y="-124" type="curve" smooth="yes"/>
      <point x="395" y="-124" type="line" smooth="yes"/>
      <point x="408" y="-124"/>
      <point x="419" y="-115"/>
      <point x="422" y="-101" type="curve" smooth="yes"/>
      <point x="513" y="327" type="line" smooth="yes"/>
      <point x="548" y="493"/>
      <point x="482" y="571"/>
      <point x="309" y="571" type="curve" smooth="yes"/>
      <point x="158" y="571" type="line"/>
      <point x="145" y="571"/>
      <point x="133" y="562"/>
      <point x="131" y="548" type="curve" smooth="yes"/>
      <point x="124" y="516" type="line" smooth="yes"/>
      <point x="121" y="503"/>
      <point x="128" y="494"/>
      <point x="142" y="494" type="curve" smooth="yes"/>
      <point x="288" y="494" type="line" smooth="yes"/>
      <point x="409" y="494"/>
      <point x="447" y="430"/>
      <point x="423" y="322" type="curve" smooth="yes"/>
    </contour>
    <contour>
      <point x="257" y="283" type="move" name="bottom"/>
    </contour>
    <contour>
      <point x="365" y="520" type="move" name="top"/>
    </contour>
    <contour>
      <point x="21" y="0" type="move" name="bottomleft"/>
    </contour>
    <contour>
      <point x="132" y="520" type="move" name="topleft"/>
    </contour>
    <contour>
      <point x="289" y="260" type="move" name="center"/>
    </contour>
  </outline>
</glyph>
<glyph name="kafhebrew" format="1">
  <advance width="559"/>
  <unicode hex="05DB"/>
  <outline>
    <contour>
      <point x="199" y="0" type="line" smooth="yes"/>
      <point x="374" y="0"/>
      <point x="467" y="92"/>
      <point x="506" y="247" type="curve" smooth="yes"/>
      <point x="512" y="276"/>
      <point x="517" y="296"/>
      <point x="522" y="324" type="curve" smooth="yes"/>
      <point x="549" y="479"/>
      <point x="495" y="571"/>
      <point x="320" y="571" type="curve" smooth="yes"/>
      <point x="172" y="571" type="line" smooth="yes"/>
      <point x="158" y="571"/>
      <point x="147" y="562"/>
      <point x="145" y="548" type="curve" smooth="yes"/>
      <point x="138" y="515" type="line" smooth="yes"/>
      <point x="135" y="501"/>
      <point x="142" y="492"/>
      <point x="155" y="492" type="curve" smooth="yes"/>
      <point x="298" y="492" type="line" smooth="yes"/>
      <point x="419" y="492"/>
      <point x="454" y="429"/>
      <point x="434" y="320" type="curve" smooth="yes"/>
      <point x="430" y="292"/>
      <point x="427" y="279"/>
      <point x="420" y="251" type="curve" smooth="yes"/>
      <point x="392" y="143"/>
      <point x="331" y="79"/>
      <point x="210" y="79" type="curve" smooth="yes"/>
      <point x="67" y="79" type="line" smooth="yes"/>
      <point x="54" y="79"/>
      <point x="42" y="70"/>
      <point x="40" y="56" type="curve" smooth="yes"/>
      <point x="33" y="23" type="line" smooth="yes"/>
      <point x="30" y="10"/>
      <point x="37" y="0"/>
      <point x="51" y="0" type="curve" smooth="yes"/>
    </contour>
    <contour>
      <point x="248" y="260" type="move" name="center"/>
    </contour>
    <contour>
      <point x="320" y="520" type="move" name="top"/>
    </contour>
    <contour>
      <point x="3" y="0" type="move" name="bottomleft"/>
    </contour>
    <contour>
      <point x="114" y="520" type="move" name="topleft"/>
    </contour>
    <contour>
      <point x="214" y="0" type="move" name="bottom"/>
    </contour>
  </outline>
</glyph>
<glyph name="lamedhebrew" format="1">
  <advance width="522"/>
  <unicode hex="05DC"/>
  <outline>
    <contour>
      <point x="192" y="5" type="line" smooth="yes"/>
      <point x="317" y="44"/>
      <point x="444" y="124"/>
      <point x="484" y="310" type="curve" smooth="yes"/>
      <point x="524" y="498"/>
      <point x="475" y="571"/>
      <point x="293" y="571" type="curve" smooth="yes"/>
      <point x="249" y="571" type="line"/>
      <point x="236" y="571"/>
      <point x="225" y="562"/>
      <point x="222" y="549" type="curve"/>
      <point x="215" y="515" type="line"/>
      <point x="212" y="501"/>
      <point x="220" y="492"/>
      <point x="233" y="492" type="curve"/>
      <point x="264" y="492" type="line"/>
      <point x="391" y="492"/>
      <point x="424" y="446"/>
      <point x="396" y="314" type="curve" smooth="yes"/>
      <point x="366" y="177"/>
      <point x="293" y="126"/>
      <point x="206" y="95" type="curve" smooth="yes"/>
      <point x="164" y="80" type="line" smooth="yes"/>
      <point x="148" y="74"/>
      <point x="138" y="63"/>
      <point x="136" y="53" type="curve" smooth="yes"/>
      <point x="126" y="9" type="line" smooth="yes"/>
      <point x="124" y="-6"/>
      <point x="134" y="-13"/>
      <point x="147" y="-9" type="curve" smooth="yes"/>
    </contour>
    <contour>
      <point x="275" y="571" type="line"/>
      <point x="218" y="571" type="line"/>
      <point x="243" y="687" type="line" smooth="yes"/>
      <point x="246" y="701"/>
      <point x="238" y="710"/>
      <point x="225" y="710" type="curve" smooth="yes"/>
      <point x="185" y="710" type="line" smooth="yes"/>
      <point x="172" y="710"/>
      <point x="160" y="701"/>
      <point x="157" y="687" type="curve" smooth="yes"/>
      <point x="121" y="515" type="line" smooth="yes"/>
      <point x="118" y="501"/>
      <point x="125" y="493"/>
      <point x="139" y="493" type="curve" smooth="yes"/>
      <point x="256" y="492" type="line"/>
    </contour>
    <contour>
      <point x="217" y="260" type="move" name="center"/>
    </contour>
    <contour>
      <point x="294" y="520" type="move" name="top"/>
    </contour>
    <contour>
      <point x="14" y="0" type="move" name="bottomleft"/>
    </contour>
    <contour>
      <point x="125" y="520" type="move" name="topleft"/>
    </contour>
    <contour>
      <point x="227" y="0" type="move" name="bottom"/>
    </contour>
  </outline>
</glyph>
<glyph name="finalmemhebrew" format="1">
  <advance width="615"/>
  <unicode hex="05DD"/>
  <outline>
    <contour>
      <point x="470" y="0" type="line" smooth="yes"/>
      <point x="483" y="0"/>
      <point x="495" y="10"/>
      <point x="498" y="23" type="curve" smooth="yes"/>
      <point x="563" y="327" type="line" smooth="yes"/>
      <point x="596" y="488"/>
      <point x="533" y="571"/>
      <point x="361" y="571" type="curve" smooth="yes"/>
      <point x="172" y="571" type="line" smooth="yes"/>
      <point x="158" y="571"/>
      <point x="147" y="562"/>
      <point x="145" y="548" type="curve" smooth="yes"/>
      <point x="33" y="23" type="line" smooth="yes"/>
      <point x="30" y="10"/>
      <point x="37" y="0"/>
      <point x="51" y="0" type="curve" smooth="yes"/>
    </contour>
    <contour>
      <point x="216" y="494" type="line"/>
      <point x="340" y="494" type="line" smooth="yes"/>
      <point x="461" y="494"/>
      <point x="498" y="430"/>
      <point x="475" y="322" type="curve" smooth="yes"/>
      <point x="423" y="78" type="line"/>
      <point x="127" y="78" type="line"/>
    </contour>
    <contour>
      <point x="313" y="260" type="move" name="center"/>
    </contour>
    <contour>
      <point x="369" y="520" type="move" name="top"/>
    </contour>
    <contour>
      <point x="-30" y="0" type="move" name="bottomleft"/>
    </contour>
    <contour>
      <point x="81" y="520" type="move" name="topleft"/>
    </contour>
    <contour>
      <point x="258" y="0" type="move" name="bottom"/>
    </contour>
  </outline>
</glyph>
<glyph name="memhebrew" format="1">
  <advance width="621"/>
  <unicode hex="05DE"/>
  <outline>
    <contour>
      <point x="477" y="0" type="line" smooth="yes"/>
      <point x="490" y="0"/>
      <point x="502" y="10"/>
      <point x="505" y="23" type="curve" smooth="yes"/>
      <point x="569" y="327" type="line" smooth="yes"/>
      <point x="602" y="486"/>
      <point x="532" y="578"/>
      <point x="409" y="578" type="curve" smooth="yes"/>
      <point x="295" y="579"/>
      <point x="201" y="485"/>
      <point x="156" y="398" type="curve"/>
      <point x="152" y="326" type="line"/>
      <point x="198" y="411"/>
      <point x="280" y="500"/>
      <point x="382" y="499" type="curve" smooth="yes"/>
      <point x="460" y="499"/>
      <point x="503" y="430"/>
      <point x="479" y="322" type="curve" smooth="yes"/>
      <point x="428" y="78" type="line"/>
      <point x="235" y="78" type="line" smooth="yes"/>
      <point x="222" y="78"/>
      <point x="210" y="68"/>
      <point x="208" y="55" type="curve" smooth="yes"/>
      <point x="201" y="23" type="line" smooth="yes"/>
      <point x="198" y="10"/>
      <point x="205" y="0"/>
      <point x="219" y="0" type="curve" smooth="yes"/>
    </contour>
    <contour>
      <point x="58" y="0" type="line" smooth="yes"/>
      <point x="70" y="0"/>
      <point x="84" y="10"/>
      <point x="88" y="24" type="curve"/>
      <point x="252" y="453" type="line" smooth="yes"/>
      <point x="259" y="466"/>
      <point x="251" y="477"/>
      <point x="238" y="478" type="curve" smooth="yes"/>
      <point x="198" y="480" type="line" smooth="yes"/>
      <point x="185" y="482"/>
      <point x="173" y="474"/>
      <point x="168" y="461" type="curve" smooth="yes"/>
      <point x="1" y="24" type="line" smooth="yes"/>
      <point x="-4" y="10"/>
      <point x="3" y="0"/>
      <point x="16" y="0" type="curve" smooth="yes"/>
    </contour>
    <contour>
      <point x="141" y="571"/>
      <point x="126" y="560"/>
      <point x="129" y="547" type="curve" smooth="yes"/>
      <point x="153" y="428" type="line" smooth="yes"/>
      <point x="155" y="414"/>
      <point x="161" y="406"/>
      <point x="174" y="408" type="curve" smooth="yes"/>
      <point x="218" y="411" type="line" smooth="yes"/>
      <point x="232" y="412"/>
      <point x="243" y="423"/>
      <point x="243" y="435" type="curve" smooth="yes"/>
      <point x="221" y="547" type="line" smooth="yes"/>
      <point x="218" y="560"/>
      <point x="213" y="571"/>
      <point x="200" y="571" type="curve" smooth="yes"/>
      <point x="154" y="571" type="line" smooth="yes"/>
    </contour>
    <contour>
      <point x="313" y="255" type="move" name="center"/>
    </contour>
    <contour>
      <point x="366" y="520" type="move" name="top"/>
    </contour>
    <contour>
      <point x="-41" y="0" type="move" name="bottomleft"/>
    </contour>
    <contour>
      <point x="70" y="520" type="move" name="topleft"/>
    </contour>
    <contour>
      <point x="268" y="0" type="move" name="bottom"/>
    </contour>
  </outline>
</glyph>
<glyph name="nunhebrew" format="1">
  <advance width="406"/>
  <unicode hex="05E0"/>
  <outline>
    <contour>
      <point x="275" y="0" type="line" smooth="yes"/>
      <point x="288" y="0"/>
      <point x="299" y="5"/>
      <point x="302" y="19" type="curve" smooth="yes"/>
      <point x="314" y="78" type="line"/>
      <point x="34" y="78" type="line" smooth="yes"/>
      <point x="21" y="78"/>
      <point x="9" y="68"/>
      <point x="7" y="55" type="curve" smooth="yes"/>
      <point x="0" y="23" type="line" smooth="yes"/>
      <point x="-3" y="10"/>
      <point x="4" y="0"/>
      <point x="18" y="0" type="curve" smooth="yes"/>
    </contour>
    <contour>
      <point x="284" y="0" type="line" smooth="yes"/>
      <point x="297" y="0"/>
      <point x="311" y="10"/>
      <point x="312" y="23" type="curve" smooth="yes"/>
      <point x="359" y="335" type="line" smooth="yes"/>
      <point x="381" y="478"/>
      <point x="376" y="573"/>
      <point x="226" y="573" type="curve" smooth="yes"/>
      <point x="185" y="573" type="line" smooth="yes"/>
      <point x="172" y="573"/>
      <point x="160" y="563"/>
      <point x="158" y="550" type="curve" smooth="yes"/>
      <point x="151" y="518" type="line" smooth="yes"/>
      <point x="148" y="505"/>
      <point x="156" y="496"/>
      <point x="169" y="496" type="curve" smooth="yes"/>
      <point x="209" y="496" type="line" smooth="yes"/>
      <point x="295" y="496"/>
      <point x="284" y="431"/>
      <point x="269" y="332" type="curve" smooth="yes"/>
      <point x="222" y="23" type="line"/>
      <point x="222" y="10"/>
      <point x="227" y="0"/>
      <point x="240" y="0" type="curve" smooth="yes"/>
    </contour>
    <contour>
      <point x="152" y="0" type="move" name="bottom"/>
    </contour>
    <contour>
      <point x="263" y="520" type="move" name="top"/>
    </contour>
    <contour>
      <point x="-30" y="0" type="move" name="bottomleft"/>
    </contour>
    <contour>
      <point x="81" y="520" type="move" name="topleft"/>
    </contour>
    <contour>
      <point x="173" y="260" type="move" name="center"/>
    </contour>
  </outline>
</glyph>
<glyph name="samekhhebrew" format="1">
  <advance width="637"/>
  <unicode hex="05E1"/>
  <outline>
    <contour>
      <point x="452" y="-10"/>
      <point x="542" y="73"/>
      <point x="580" y="227" type="curve" smooth="yes"/>
      <point x="585" y="247"/>
      <point x="599" y="315"/>
      <point x="603" y="335" type="curve" smooth="yes"/>
      <point x="629" y="489"/>
      <point x="583" y="571"/>
      <point x="406" y="571" type="curve"/>
      <point x="166" y="571" type="line" smooth="yes"/>
      <point x="152" y="571"/>
      <point x="141" y="562"/>
      <point x="139" y="548" type="curve" smooth="yes"/>
      <point x="73" y="240" type="line" smooth="yes"/>
      <point x="39" y="81"/>
      <point x="99" y="-10"/>
      <point x="265" y="-10" type="curve" smooth="yes"/>
    </contour>
    <contour>
      <point x="174" y="69"/>
      <point x="134" y="131"/>
      <point x="158" y="240" type="curve" smooth="yes"/>
      <point x="211" y="494" type="line"/>
      <point x="385" y="494" type="line" smooth="yes"/>
      <point x="484" y="494"/>
      <point x="535" y="439"/>
      <point x="516" y="330" type="curve" smooth="yes"/>
      <point x="512" y="310"/>
      <point x="500" y="252"/>
      <point x="495" y="232" type="curve" smooth="yes"/>
      <point x="468" y="123"/>
      <point x="410" y="69"/>
      <point x="282" y="69" type="curve" smooth="yes"/>
    </contour>
    <contour>
      <point x="322" y="260" type="move" name="center"/>
    </contour>
    <contour>
      <point x="376" y="520" type="move" name="top"/>
    </contour>
    <contour>
      <point x="-30" y="0" type="move" name="bottomleft"/>
    </contour>
    <contour>
      <point x="81" y="520" type="move" name="topleft"/>
    </contour>
    <contour>
      <point x="265" y="0" type="move" name="bottom"/>
    </contour>
  </outline>
</glyph>
<glyph name="ayinhebrew" format="1">
  <advance width="576"/>
  <unicode hex="05E2"/>
  <outline>
    <contour>
      <point x="243" y="14" type="line" smooth="yes"/>
      <point x="383" y="53"/>
      <point x="487" y="155"/>
      <point x="512" y="272" type="curve" smooth="yes"/>
      <point x="571" y="548" type="line" smooth="yes"/>
      <point x="573" y="562"/>
      <point x="566" y="571"/>
      <point x="552" y="571" type="curve" smooth="yes"/>
      <point x="510" y="571" type="line" smooth="yes"/>
      <point x="497" y="571"/>
      <point x="485" y="562"/>
      <point x="483" y="548" type="curve" smooth="yes"/>
      <point x="430" y="299" type="line" smooth="yes"/>
      <point x="410" y="204"/>
      <point x="363" y="130"/>
      <point x="241" y="91" type="curve" smooth="yes"/>
      <point x="15" y="21" type="line" smooth="yes"/>
      <point x="2" y="17"/>
      <point x="-4" y="6"/>
      <point x="-7" y="-7" type="curve" smooth="yes"/>
      <point x="-14" y="-38" type="line" smooth="yes"/>
      <point x="-16" y="-52"/>
      <point x="-4" y="-60"/>
      <point x="11" y="-55" type="curve" smooth="yes"/>
    </contour>
    <contour>
      <point x="251" y="47" type="line"/>
      <point x="214" y="556" type="line" smooth="yes"/>
      <point x="214" y="564"/>
      <point x="207" y="571"/>
      <point x="194" y="571" type="curve" smooth="yes"/>
      <point x="148" y="571" type="line" smooth="yes"/>
      <point x="137" y="571"/>
      <point x="126" y="562"/>
      <point x="124" y="551" type="curve" smooth="yes"/>
      <point x="123" y="546"/>
      <point x="124" y="541"/>
      <point x="125" y="531" type="curve" smooth="yes"/>
      <point x="158" y="24" type="line"/>
    </contour>
    <contour>
      <point x="300" y="0" type="move" name="bottom"/>
    </contour>
    <contour>
      <point x="412" y="520" type="move" name="top"/>
    </contour>
    <contour>
      <point x="-30" y="0" type="move" name="bottomleft"/>
    </contour>
    <contour>
      <point x="81" y="520" type="move" name="topleft"/>
    </contour>
    <contour>
      <point x="356" y="260" type="move" name="center"/>
    </contour>
  </outline>
</glyph>
<glyph name="finalpehebrew" format="1">
  <advance width="568"/>
  <unicode hex="05E3"/>
  <outline>
    <contour>
      <point x="401" y="-124" type="line" smooth="yes"/>
      <point x="415" y="-124"/>
      <point x="426" y="-115"/>
      <point x="428" y="-101" type="curve"/>
      <point x="519" y="324" type="line"/>
      <point x="550" y="479"/>
      <point x="492" y="571"/>
      <point x="320" y="571" type="curve" smooth="yes"/>
      <point x="207" y="571" type="line" smooth="yes"/>
      <point x="189" y="571"/>
      <point x="173" y="560"/>
      <point x="167" y="539" type="curve" smooth="yes"/>
      <point x="159" y="515" type="line" smooth="yes"/>
      <point x="155" y="501"/>
      <point x="163" y="492"/>
      <point x="176" y="492" type="curve" smooth="yes"/>
      <point x="296" y="492" type="line" smooth="yes"/>
      <point x="416" y="492"/>
      <point x="454" y="429"/>
      <point x="431" y="320" type="curve"/>
      <point x="342" y="-101" type="line"/>
      <point x="340" y="-115"/>
      <point x="347" y="-124"/>
      <point x="360" y="-124" type="curve" smooth="yes"/>
    </contour>
    <contour>
      <point x="151" y="527"/>
      <point x="101" y="456"/>
      <point x="84" y="379" type="curve" smooth="yes"/>
      <point x="63" y="280"/>
      <point x="98" y="232"/>
      <point x="133" y="193" type="curve" smooth="yes"/>
      <point x="150" y="175" type="line" smooth="yes"/>
      <point x="158" y="167"/>
      <point x="171" y="168"/>
      <point x="182" y="177" type="curve" smooth="yes"/>
      <point x="217" y="198" type="line" smooth="yes"/>
      <point x="227" y="208"/>
      <point x="229" y="222"/>
      <point x="221" y="229" type="curve" smooth="yes"/>
      <point x="205" y="248" type="line" smooth="yes"/>
      <point x="189" y="266"/>
      <point x="150" y="305"/>
      <point x="166" y="379" type="curve" smooth="yes"/>
      <point x="181" y="451"/>
      <point x="215" y="497"/>
      <point x="244" y="529" type="curve" smooth="yes"/>
      <point x="253" y="539"/>
      <point x="249" y="553"/>
      <point x="239" y="557" type="curve"/>
      <point x="217" y="569" type="line"/>
      <point x="205" y="574"/>
      <point x="187" y="569"/>
      <point x="176" y="557" type="curve" smooth="yes"/>
    </contour>
    <contour>
      <point x="235" y="0" type="move" name="bottom"/>
    </contour>
    <contour>
      <point x="346" y="520" type="move" name="top"/>
    </contour>
    <contour>
      <point x="-30" y="0" type="move" name="bottomleft"/>
    </contour>
    <contour>
      <point x="81" y="520" type="move" name="topleft"/>
    </contour>
    <contour>
      <point x="292" y="322" type="move" name="center"/>
    </contour>
  </outline>
</glyph>
<glyph name="pehebrew" format="1">
  <advance width="568"/>
  <unicode hex="05E4"/>
  <outline>
    <contour>
      <point x="167" y="492"/>
      <point x="160" y="502"/>
      <point x="163" y="515" type="curve" smooth="yes"/>
      <point x="175" y="548" type="line" smooth="yes"/>
      <point x="177" y="562"/>
      <point x="188" y="571"/>
      <point x="202" y="571" type="curve" smooth="yes"/>
      <point x="356" y="571" type="line" smooth="yes"/>
      <point x="505" y="571"/>
      <point x="560" y="479"/>
      <point x="532" y="324" type="curve" smooth="yes"/>
      <point x="528" y="304"/>
      <point x="521" y="267"/>
      <point x="515" y="247" type="curve" smooth="yes"/>
      <point x="478" y="92"/>
      <point x="384" y="0"/>
      <point x="235" y="0" type="curve" smooth="yes"/>
      <point x="55" y="0" type="line" smooth="yes"/>
      <point x="41" y="0"/>
      <point x="34" y="10"/>
      <point x="37" y="23" type="curve" smooth="yes"/>
      <point x="44" y="56" type="line" smooth="yes"/>
      <point x="46" y="70"/>
      <point x="58" y="79"/>
      <point x="71" y="79" type="curve" smooth="yes"/>
      <point x="247" y="79" type="line" smooth="yes"/>
      <point x="341" y="79"/>
      <point x="404" y="143"/>
      <point x="432" y="251" type="curve" smooth="yes"/>
      <point x="438" y="271"/>
      <point x="444" y="300"/>
      <point x="447" y="320" type="curve" smooth="yes"/>
      <point x="467" y="429"/>
      <point x="429" y="492"/>
      <point x="335" y="492" type="curve" smooth="yes"/>
      <point x="181" y="492" type="line" smooth="yes"/>
    </contour>
    <contour>
      <point x="187" y="569"/>
      <point x="196" y="574"/>
      <point x="208" y="569" type="curve"/>
      <point x="239" y="557" type="line"/>
      <point x="249" y="553"/>
      <point x="253" y="539"/>
      <point x="244" y="529" type="curve" smooth="yes"/>
      <point x="215" y="497"/>
      <point x="177" y="448"/>
      <point x="167" y="398" type="curve" smooth="yes"/>
      <point x="156" y="347"/>
      <point x="160" y="319"/>
      <point x="187" y="304" type="curve" smooth="yes"/>
      <point x="195" y="300" type="line" smooth="yes"/>
      <point x="204" y="295"/>
      <point x="209" y="284"/>
      <point x="206" y="268" type="curve" smooth="yes"/>
      <point x="201" y="243" type="line" smooth="yes"/>
      <point x="198" y="229"/>
      <point x="179" y="222"/>
      <point x="164" y="226" type="curve" smooth="yes"/>
      <point x="152" y="228" type="line" smooth="yes"/>
      <point x="92" y="242"/>
      <point x="68" y="318"/>
      <point x="86" y="398" type="curve" smooth="yes"/>
      <point x="100" y="468"/>
      <point x="151" y="527"/>
      <point x="176" y="557" type="curve" smooth="yes"/>
    </contour>
    <contour>
      <point x="226" y="0" type="move" name="bottom"/>
    </contour>
    <contour>
      <point x="337" y="520" type="move" name="top"/>
    </contour>
    <contour>
      <point x="-29" y="0" type="move" name="bottomleft"/>
    </contour>
    <contour>
      <point x="82" y="520" type="move" name="topleft"/>
    </contour>
    <contour>
      <point x="291" y="260" type="move" name="center"/>
    </contour>
  </outline>
</glyph>
<glyph name="tsadihebrew" format="1">
  <advance width="531"/>
  <unicode hex="05E6"/>
  <outline>
    <contour>
      <point x="389" y="0" type="line" smooth="yes"/>
      <point x="402" y="0"/>
      <point x="414" y="10"/>
      <point x="417" y="23" type="curve" smooth="yes"/>
      <point x="423" y="54" type="line" smooth="yes"/>
      <point x="426" y="66"/>
      <point x="423" y="75"/>
      <point x="418" y="84" type="curve" smooth="yes"/>
      <point x="191" y="555" type="line" smooth="yes"/>
      <point x="188" y="562"/>
      <point x="181" y="571"/>
      <point x="167" y="571" type="curve" smooth="yes"/>
      <point x="122" y="571" type="line" smooth="yes"/>
      <point x="111" y="571"/>
      <point x="99" y="562"/>
      <point x="97" y="551" type="curve" smooth="yes"/>
      <point x="96" y="546"/>
      <point x="97" y="540"/>
      <point x="101" y="532" type="curve" smooth="yes"/>
      <point x="317" y="78" type="line"/>
      <point x="45" y="78" type="line" smooth="yes"/>
      <point x="32" y="78"/>
      <point x="20" y="69"/>
      <point x="18" y="55" type="curve" smooth="yes"/>
      <point x="11" y="23" type="line" smooth="yes"/>
      <point x="8" y="10"/>
      <point x="15" y="0"/>
      <point x="29" y="0" type="curve" smooth="yes"/>
    </contour>
    <contour>
      <point x="428" y="263"/>
      <point x="494" y="340"/>
      <point x="517" y="450" type="curve" smooth="yes"/>
      <point x="538" y="548" type="line" smooth="yes"/>
      <point x="540" y="561"/>
      <point x="533" y="571"/>
      <point x="519" y="571" type="curve" smooth="yes"/>
      <point x="480" y="571" type="line" smooth="yes"/>
      <point x="467" y="571"/>
      <point x="455" y="562"/>
      <point x="453" y="548" type="curve" smooth="yes"/>
      <point x="434" y="461" type="line" smooth="yes"/>
      <point x="416" y="376"/>
      <point x="374" y="315"/>
      <point x="298" y="291" type="curve"/>
      <point x="327" y="227" type="line"/>
    </contour>
    <contour>
      <point x="214" y="0" type="move" name="bottom"/>
    </contour>
    <contour>
      <point x="325" y="520" type="move" name="top"/>
    </contour>
    <contour>
      <point x="-30" y="0" type="move" name="bottomleft"/>
    </contour>
    <contour>
      <point x="81" y="520" type="move" name="topleft"/>
    </contour>
    <contour>
      <point x="133" y="209" type="move" name="center"/>
    </contour>
  </outline>
</glyph>
<glyph name="qofhebrew" format="1">
  <advance width="624"/>
  <unicode hex="05E7"/>
  <outline>
    <contour>
      <point x="51" y="-191" type="line" smooth="yes"/>
      <point x="64" y="-191"/>
      <point x="76" y="-182"/>
      <point x="79" y="-168" type="curve"/>
      <point x="195" y="376" type="line" smooth="yes"/>
      <point x="197" y="389"/>
      <point x="190" y="399"/>
      <point x="177" y="399" type="curve" smooth="yes"/>
      <point x="135" y="399" type="line" smooth="yes"/>
      <point x="122" y="399"/>
      <point x="110" y="389"/>
      <point x="108" y="376" type="curve" smooth="yes"/>
      <point x="-8" y="-168" type="line" smooth="yes"/>
      <point x="-11" y="-182"/>
      <point x="-4" y="-191"/>
      <point x="10" y="-191" type="curve" smooth="yes"/>
    </contour>
    <contour>
      <point x="283" y="5" type="line" smooth="yes"/>
      <point x="408" y="44"/>
      <point x="535" y="124"/>
      <point x="575" y="310" type="curve" smooth="yes"/>
      <point x="615" y="498"/>
      <point x="566" y="571"/>
      <point x="384" y="571" type="curve" smooth="yes"/>
      <point x="171" y="571" type="line"/>
      <point x="158" y="571"/>
      <point x="146" y="562"/>
      <point x="144" y="549" type="curve"/>
      <point x="137" y="515" type="line"/>
      <point x="134" y="501"/>
      <point x="142" y="492"/>
      <point x="155" y="492" type="curve"/>
      <point x="355" y="492" type="line"/>
      <point x="482" y="492"/>
      <point x="514" y="446"/>
      <point x="487" y="314" type="curve" smooth="yes"/>
      <point x="457" y="177"/>
      <point x="384" y="126"/>
      <point x="297" y="95" type="curve" smooth="yes"/>
      <point x="255" y="80" type="line" smooth="yes"/>
      <point x="239" y="74"/>
      <point x="229" y="63"/>
      <point x="227" y="53" type="curve" smooth="yes"/>
      <point x="217" y="9" type="line" smooth="yes"/>
      <point x="215" y="-6"/>
      <point x="225" y="-13"/>
      <point x="238" y="-9" type="curve" smooth="yes"/>
    </contour>
    <contour>
      <point x="292" y="260" type="move" name="center"/>
    </contour>
    <contour>
      <point x="348" y="520" type="move" name="top"/>
    </contour>
    <contour>
      <point x="-30" y="0" type="move" name="bottomleft"/>
    </contour>
    <contour>
      <point x="81" y="520" type="move" name="topleft"/>
    </contour>
    <contour>
      <point x="334" y="0" type="move" name="bottom"/>
    </contour>
  </outline>
</glyph>
<glyph name="shinhebrew" format="1">
  <advance width="727"/>
  <unicode hex="05E9"/>
  <outline>
    <contour>
      <point x="301" y="72" type="line"/>
      <point x="202" y="72"/>
      <point x="143" y="129"/>
      <point x="167" y="244" type="curve"/>
      <point x="229" y="548" type="line" smooth="yes"/>
      <point x="231" y="562"/>
      <point x="224" y="571"/>
      <point x="210" y="571" type="curve" smooth="yes"/>
      <point x="171" y="571" type="line" smooth="yes"/>
      <point x="158" y="571"/>
      <point x="146" y="562"/>
      <point x="144" y="548" type="curve" smooth="yes"/>
      <point x="77" y="234" type="line" smooth="yes"/>
      <point x="46" y="90"/>
      <point x="125" y="-6"/>
      <point x="254" y="-6" type="curve" smooth="yes"/>
      <point x="328" y="-6" type="line" smooth="yes"/>
      <point x="490" y="-10"/>
      <point x="626" y="100"/>
      <point x="661" y="270" type="curve" smooth="yes"/>
      <point x="721" y="548" type="line" smooth="yes"/>
      <point x="723" y="562"/>
      <point x="716" y="571"/>
      <point x="703" y="571" type="curve" smooth="yes"/>
      <point x="664" y="571" type="line" smooth="yes"/>
      <point x="650" y="571"/>
      <point x="639" y="562"/>
      <point x="637" y="548" type="curve" smooth="yes"/>
      <point x="579" y="276" type="line" smooth="yes"/>
      <point x="553" y="155"/>
      <point x="463" y="70"/>
      <point x="333" y="72" type="curve"/>
    </contour>
    <contour>
      <point x="317" y="190"/>
      <point x="424" y="290"/>
      <point x="452" y="419" type="curve" smooth="yes"/>
      <point x="480" y="548" type="line" smooth="yes"/>
      <point x="482" y="561"/>
      <point x="474" y="571"/>
      <point x="461" y="571" type="curve" smooth="yes"/>
      <point x="422" y="571" type="line" smooth="yes"/>
      <point x="409" y="571"/>
      <point x="397" y="562"/>
      <point x="395" y="548" type="curve" smooth="yes"/>
      <point x="368" y="423" type="line" smooth="yes"/>
      <point x="350" y="336"/>
      <point x="295" y="260"/>
      <point x="148" y="258" type="curve"/>
      <point x="136" y="192" type="line"/>
    </contour>
    <contour>
      <point x="485" y="260" type="move" name="center"/>
    </contour>
    <contour>
      <point x="434" y="520" type="move" name="top"/>
    </contour>
    <contour>
      <point x="-26" y="0" type="move" name="bottomleft"/>
    </contour>
    <contour>
      <point x="78" y="520" type="move" name="topleft"/>
    </contour>
    <contour>
      <point x="776" y="520" type="move" name="topright"/>
    </contour>
    <contour>
      <point x="323" y="0" type="move" name="bottom"/>
    </contour>
  </outline>
</glyph>
<glyph name="onethird" format="1">
  <advance width="752"/>
  <unicode hex="2153"/>
  <outline>
    <contour>
      <point x="281" y="678" type="line" smooth="yes"/>
      <point x="284" y="691"/>
      <point x="277" y="700"/>
      <point x="264" y="700" type="curve" smooth="yes"/>
      <point x="238" y="700" type="line" smooth="yes"/>
      <point x="228" y="700"/>
      <point x="221" y="698"/>
      <point x="213" y="693" type="curve" smooth="yes"/>
      <point x="89" y="614" type="line" smooth="yes"/>
      <point x="78" y="606"/>
      <point x="73" y="593"/>
      <point x="79" y="583" type="curve" smooth="yes"/>
      <point x="93" y="559" type="line" smooth="yes"/>
      <point x="98" y="548"/>
      <point x="112" y="547"/>
      <point x="123" y="554" type="curve" smooth="yes"/>
      <point x="186" y="595" type="line"/>
      <point x="139" y="372" type="line" smooth="yes"/>
      <point x="136" y="359"/>
      <point x="143" y="350"/>
      <point x="156" y="350" type="curve" smooth="yes"/>
      <point x="189" y="350" type="line" smooth="yes"/>
      <point x="202" y="350"/>
      <point x="213" y="359"/>
      <point x="216" y="372" type="curve" smooth="yes"/>
    </contour>
    <contour>
      <point x="-29" y="31" type="line" smooth="yes"/>
      <point x="-33" y="27"/>
      <point x="-35" y="22"/>
      <point x="-35" y="20" type="curve" smooth="yes"/>
      <point x="-38" y="8"/>
      <point x="-29" y="0"/>
      <point x="-15" y="0" type="curve" smooth="yes"/>
      <point x="23" y="0" type="line" smooth="yes"/>
      <point x="42" y="0"/>
      <point x="51" y="7"/>
      <point x="63" y="19" type="curve" smooth="yes"/>
      <point x="695" y="669" type="line" smooth="yes"/>
      <point x="699" y="673"/>
      <point x="701" y="678"/>
      <point x="701" y="680" type="curve" smooth="yes"/>
      <point x="704" y="692"/>
      <point x="695" y="700"/>
      <point x="681" y="700" type="curve" smooth="yes"/>
      <point x="643" y="700" type="line" smooth="yes"/>
      <point x="624" y="700"/>
      <point x="615" y="693"/>
      <point x="603" y="681" type="curve" smooth="yes"/>
    </contour>
    <contour>
      <point x="693" y="324" type="line" smooth="yes"/>
      <point x="696" y="337"/>
      <point x="689" y="346"/>
      <point x="676" y="346" type="curve" smooth="yes"/>
      <point x="469" y="346" type="line" smooth="yes"/>
      <point x="456" y="346"/>
      <point x="445" y="337"/>
      <point x="442" y="324" type="curve" smooth="yes"/>
      <point x="436" y="296" type="line" smooth="yes"/>
      <point x="433" y="283"/>
      <point x="440" y="274"/>
      <point x="453" y="274" type="curve" smooth="yes"/>
      <point x="572" y="274" type="line"/>
      <point x="485" y="202" type="line" smooth="yes"/>
      <point x="477" y="195"/>
      <point x="470" y="188"/>
      <point x="468" y="178" type="curve" smooth="yes"/>
      <point x="465" y="162" type="line" smooth="yes"/>
      <point x="462" y="149"/>
      <point x="469" y="140"/>
      <point x="482" y="140" type="curve" smooth="yes"/>
      <point x="529" y="140" type="line" smooth="yes"/>
      <point x="567" y="140"/>
      <point x="586" y="127"/>
      <point x="581" y="103" type="curve" smooth="yes"/>
      <point x="576" y="77"/>
      <point x="548" y="63"/>
      <point x="506" y="63" type="curve" smooth="yes"/>
      <point x="469" y="63"/>
      <point x="462" y="72"/>
      <point x="456" y="82" type="curve" smooth="yes"/>
      <point x="452" y="89"/>
      <point x="447" y="94"/>
      <point x="438" y="94" type="curve" smooth="yes"/>
      <point x="386" y="94" type="line" smooth="yes"/>
      <point x="374" y="94"/>
      <point x="367" y="88"/>
      <point x="368" y="75" type="curve" smooth="yes"/>
      <point x="372" y="29"/>
      <point x="436" y="-9"/>
      <point x="504" y="-9" type="curve" smooth="yes"/>
      <point x="596" y="-9"/>
      <point x="645" y="40"/>
      <point x="658" y="103" type="curve" smooth="yes"/>
      <point x="670" y="159"/>
      <point x="637" y="194"/>
      <point x="590" y="203" type="curve"/>
      <point x="665" y="266" type="line" smooth="yes"/>
      <point x="682" y="280"/>
      <point x="685" y="288"/>
      <point x="689" y="303" type="curve" smooth="yes"/>
    </contour>
  </outline>
</glyph>
<glyph name="seveneighths" format="1">
  <advance width="751"/>
  <unicode hex="215E"/>
  <outline>
    <contour>
      <point x="-14" y="31" type="line" smooth="yes"/>
      <point x="-18" y="27"/>
      <point x="-20" y="22"/>
      <point x="-20" y="20" type="curve" smooth="yes"/>
      <point x="-23" y="8"/>
      <point x="-14" y="0"/>
      <point x="0" y="0" type="curve" smooth="yes"/>
      <point x="38" y="0" type="line" smooth="yes"/>
      <point x="57" y="0"/>
      <point x="66" y="7"/>
      <point x="78" y="19" type="curve" smooth="yes"/>
      <point x="710" y="669" type="line" smooth="yes"/>
      <point x="714" y="673"/>
      <point x="716" y="678"/>
      <point x="716" y="680" type="curve" smooth="yes"/>
      <point x="719" y="692"/>
      <point x="710" y="700"/>
      <point x="696" y="700" type="curve" smooth="yes"/>
      <point x="658" y="700" type="line" smooth="yes"/>
      <point x="639" y="700"/>
      <point x="630" y="693"/>
      <point x="618" y="681" type="curve" smooth="yes"/>
    </contour>
    <contour>
      <point x="663" y="94" type="curve" smooth="yes"/>
      <point x="671" y="129"/>
      <point x="660" y="160"/>
      <point x="633" y="174" type="curve"/>
      <point x="657" y="186"/>
      <point x="677" y="214"/>
      <point x="684" y="246" type="curve" smooth="yes"/>
      <point x="693" y="290"/>
      <point x="661" y="351"/>
      <point x="569" y="351" type="curve" smooth="yes"/>
      <point x="467" y="351"/>
      <point x="431" y="300"/>
      <point x="422" y="256" type="curve" smooth="yes"/>
      <point x="415" y="224"/>
      <point x="423" y="196"/>
      <point x="441" y="184" type="curve"/>
      <point x="408" y="170"/>
      <point x="385" y="139"/>
      <point x="377" y="104" type="curve" smooth="yes"/>
      <point x="367" y="54"/>
      <point x="402" y="-9"/>
      <point x="502" y="-9" type="curve" smooth="yes"/>
      <point x="612" y="-9"/>
      <point x="653" y="44"/>
    </contour>
    <contour>
      <point x="588" y="101" type="curve" smooth="yes"/>
      <point x="582" y="75"/>
      <point x="551" y="58"/>
      <point x="512" y="58" type="curve" smooth="yes"/>
      <point x="473" y="58"/>
      <point x="448" y="75"/>
      <point x="454" y="101" type="curve" smooth="yes"/>
      <point x="459" y="127"/>
      <point x="488" y="145"/>
      <point x="530" y="145" type="curve" smooth="yes"/>
      <point x="572" y="145"/>
      <point x="593" y="127"/>
    </contour>
    <contour>
      <point x="496" y="245" type="curve" smooth="yes"/>
      <point x="500" y="264"/>
      <point x="525" y="284"/>
      <point x="560" y="284" type="curve" smooth="yes"/>
      <point x="595" y="284"/>
      <point x="610" y="264"/>
      <point x="606" y="245" type="curve" smooth="yes"/>
      <point x="602" y="226"/>
      <point x="579" y="207"/>
      <point x="543" y="207" type="curve" smooth="yes"/>
      <point x="507" y="207"/>
      <point x="492" y="226"/>
    </contour>
    <contour>
      <point x="352" y="678" type="line" smooth="yes"/>
      <point x="355" y="691"/>
      <point x="348" y="700"/>
      <point x="335" y="700" type="curve" smooth="yes"/>
      <point x="126" y="700" type="line" smooth="yes"/>
      <point x="113" y="700"/>
      <point x="102" y="691"/>
      <point x="99" y="678" type="curve" smooth="yes"/>
      <point x="93" y="650" type="line" smooth="yes"/>
      <point x="90" y="637"/>
      <point x="97" y="628"/>
      <point x="110" y="628" type="curve" smooth="yes"/>
      <point x="250" y="628" type="line"/>
      <point x="102" y="381" type="line"/>
      <point x="96" y="371"/>
      <point x="88" y="350"/>
      <point x="113" y="350" type="curve" smooth="yes"/>
      <point x="153" y="350" type="line" smooth="yes"/>
      <point x="167" y="350"/>
      <point x="177" y="362"/>
      <point x="184" y="374" type="curve" smooth="yes"/>
      <point x="339" y="630" type="line" smooth="yes"/>
      <point x="342" y="635"/>
      <point x="345" y="642"/>
      <point x="347" y="652" type="curve"/>
    </contour>
  </outline>
</glyph>
